<svg class="diagram-root" style="background: #f5f6f6" xmlns="http://www.w3.org/2000/svg" xmlns:xlink="http://www.w3.org/1999/xlink"><style>.diagram-root { font-family: "Helvetica Neue", sans-serif; font-size: 12px; } .t { overflow: visible; } .t-bg { y: 40; fill: #fff;   } .th { fill: #005aa0;   } .tht { fill: #fff; font-size: 14px;  } .tf { fill: #323c46; overflow: visible; } .tf.pk { fill: #005aa0; font-weight: bold; } .tf.fk { font-weight: bold; } .ty { fill: #adb1b5; font-weight: normal; text-anchor: end; } .r { fill: transparent; stroke: #c3c3c3; stroke-width: 1; } .l { stroke: 1; } .i { fill: #c2c7ce; stroke: #c2c7ce; } .i.ix { fill: #afb3b6; stroke: #000; } .fa { fill: transparent; overflow: visible; } .fa .bg.hover { fill: #f7f7f7; } .c { cy: 12; r: 4; stroke: #d2d2dc; fill: #d2d2dc; } .hr { fill: transparent; stroke: #323c46; stroke-opacity: 0.035; stroke-width: 13; } .dc { stroke: #fa5a3c; fill: #fa5a3c; } .x { stroke: white; stroke-width: 1; } .hl .th { fill: #1b9bff; } .hl .tht {  } .fhl .bg { fill: #e7f4ff; } .fhls .bg {  } .r.hl { stroke: #1b9bff; } .dim { opacity: 0.25; }</style><g class="drawing-wrapper" transform="translate(2, 18) scale(1,1)"><g class="rs"><path d="M 219.84 112 m -1, 0 a 1,1 0 1,0 2,0 a 1,1 0 1,0 -2,0 M 219.84 112 m -0.5, 0 a 0.5,0.5 0 1,0 1,0 a 0.5,0.5 0 1,0 -1,0  M219.84 112 L219.84 112 231.84 112 M 219.84 118 m -1, 0 a 1,1 0 1,0 2,0 a 1,1 0 1,0 -2,0 M 219.84 118 m -0.5, 0 a 0.5,0.5 0 1,0 1,0 a 0.5,0.5 0 1,0 -1,0  M219.84 118 L219.84 118 226.84 112 219.84 106 M 219.84 106 m -1, 0 a 1,1 0 1,0 2,0 a 1,1 0 1,0 -2,0 M 219.84 106 m -0.5, 0 a 0.5,0.5 0 1,0 1,0 a 0.5,0.5 0 1,0 -1,0  M231.84 112 C 281.84000000000003 112, 298.178 417, 204.61 417 M 192.61 417 m -1, 0 a 1,1 0 1,0 2,0 a 1,1 0 1,0 -2,0 M 192.61 417 m -0.5, 0 a 0.5,0.5 0 1,0 1,0 a 0.5,0.5 0 1,0 -1,0  M192.61 417 L192.61 417 204.61 417 M198.61 423 L198.61 423 198.61 411" id="h2288694812" class="r"></path><path d="M 332 97 m -1, 0 a 1,1 0 1,0 2,0 a 1,1 0 1,0 -2,0 M 332 97 m -0.5, 0 a 0.5,0.5 0 1,0 1,0 a 0.5,0.5 0 1,0 -1,0  M332 97 L332 97 320 97 M 332 103 m -1, 0 a 1,1 0 1,0 2,0 a 1,1 0 1,0 -2,0 M 332 103 m -0.5, 0 a 0.5,0.5 0 1,0 1,0 a 0.5,0.5 0 1,0 -1,0  M332 103 L332 103 325 97 332 91 M 332 91 m -1, 0 a 1,1 0 1,0 2,0 a 1,1 0 1,0 -2,0 M 332 91 m -0.5, 0 a 0.5,0.5 0 1,0 1,0 a 0.5,0.5 0 1,0 -1,0  M320 97 Q 297.96 97, 275.92 92 T 231.84 87 M 219.84 87 m -1, 0 a 1,1 0 1,0 2,0 a 1,1 0 1,0 -2,0 M 219.84 87 m -0.5, 0 a 0.5,0.5 0 1,0 1,0 a 0.5,0.5 0 1,0 -1,0  M219.84 87 L219.84 87 231.84 87 M225.84 93 L225.84 93 225.84 81" id="h3998561549" class="r"></path><path d="M 464.04 122 m -1, 0 a 1,1 0 1,0 2,0 a 1,1 0 1,0 -2,0 M 464.04 122 m -0.5, 0 a 0.5,0.5 0 1,0 1,0 a 0.5,0.5 0 1,0 -1,0  M464.04 122 L464.04 122 476.04 122 M 464.04 128 m -1, 0 a 1,1 0 1,0 2,0 a 1,1 0 1,0 -2,0 M 464.04 128 m -0.5, 0 a 0.5,0.5 0 1,0 1,0 a 0.5,0.5 0 1,0 -1,0  M464.04 128 L464.04 128 471.04 122 464.04 116 M 464.04 116 m -1, 0 a 1,1 0 1,0 2,0 a 1,1 0 1,0 -2,0 M 464.04 116 m -0.5, 0 a 0.5,0.5 0 1,0 1,0 a 0.5,0.5 0 1,0 -1,0  M476.04 122 Q 497.03 122, 518.02 112 T 560 102 M 572 102 m -1, 0 a 1,1 0 1,0 2,0 a 1,1 0 1,0 -2,0 M 572 102 m -0.5, 0 a 0.5,0.5 0 1,0 1,0 a 0.5,0.5 0 1,0 -1,0  M572 102 L572 102 560 102 M566 108 L566 108 566 96" id="h1345451965" class="r"></path><path d="M 760 308 m -1, 0 a 1,1 0 1,0 2,0 a 1,1 0 1,0 -2,0 M 760 308 m -0.5, 0 a 0.5,0.5 0 1,0 1,0 a 0.5,0.5 0 1,0 -1,0  M760 308 L760 308 748 308 M 760 314 m -1, 0 a 1,1 0 1,0 2,0 a 1,1 0 1,0 -2,0 M 760 314 m -0.5, 0 a 0.5,0.5 0 1,0 1,0 a 0.5,0.5 0 1,0 -1,0  M760 314 L760 314 753 308 760 302 M 760 302 m -1, 0 a 1,1 0 1,0 2,0 a 1,1 0 1,0 -2,0 M 760 302 m -0.5, 0 a 0.5,0.5 0 1,0 1,0 a 0.5,0.5 0 1,0 -1,0  M748 308 C 608.4 308, 642 504, 692 504 M 704 504 m -1, 0 a 1,1 0 1,0 2,0 a 1,1 0 1,0 -2,0 M 704 504 m -0.5, 0 a 0.5,0.5 0 1,0 1,0 a 0.5,0.5 0 1,0 -1,0  M704 504 L704 504 692 504 M698 510 L698 510 698 498" id="h847079979" class="r"></path><path d="M 760 333 m -1, 0 a 1,1 0 1,0 2,0 a 1,1 0 1,0 -2,0 M 760 333 m -0.5, 0 a 0.5,0.5 0 1,0 1,0 a 0.5,0.5 0 1,0 -1,0  M760 333 L760 333 748 333 M 760 339 m -1, 0 a 1,1 0 1,0 2,0 a 1,1 0 1,0 -2,0 M 760 339 m -0.5, 0 a 0.5,0.5 0 1,0 1,0 a 0.5,0.5 0 1,0 -1,0  M760 339 L760 339 753 333 760 327 M 760 327 m -1, 0 a 1,1 0 1,0 2,0 a 1,1 0 1,0 -2,0 M 760 327 m -0.5, 0 a 0.5,0.5 0 1,0 1,0 a 0.5,0.5 0 1,0 -1,0  M748 333 C 608.4 333, 642 504, 692 504 M 704 504 m -1, 0 a 1,1 0 1,0 2,0 a 1,1 0 1,0 -2,0 M 704 504 m -0.5, 0 a 0.5,0.5 0 1,0 1,0 a 0.5,0.5 0 1,0 -1,0  M704 504 L704 504 692 504 M698 510 L698 510 698 498" id="h666798191" class="r"></path><path d="M 951.74 358 m -1, 0 a 1,1 0 1,0 2,0 a 1,1 0 1,0 -2,0 M 951.74 358 m -0.5, 0 a 0.5,0.5 0 1,0 1,0 a 0.5,0.5 0 1,0 -1,0  M951.74 358 L951.74 358 963.74 358 M 951.74 364 m -1, 0 a 1,1 0 1,0 2,0 a 1,1 0 1,0 -2,0 M 951.74 364 m -0.5, 0 a 0.5,0.5 0 1,0 1,0 a 0.5,0.5 0 1,0 -1,0  M951.74 364 L951.74 364 958.74 358 951.74 352 M 951.74 352 m -1, 0 a 1,1 0 1,0 2,0 a 1,1 0 1,0 -2,0 M 951.74 352 m -0.5, 0 a 0.5,0.5 0 1,0 1,0 a 0.5,0.5 0 1,0 -1,0  M963.74 358 C 1029.212 358, 1023.41 140, 973.41 140 M 961.41 140 m -1, 0 a 1,1 0 1,0 2,0 a 1,1 0 1,0 -2,0 M 961.41 140 m -0.5, 0 a 0.5,0.5 0 1,0 1,0 a 0.5,0.5 0 1,0 -1,0  M961.41 140 L961.41 140 973.41 140 M967.41 146 L967.41 146 967.41 134" id="h1635811114" class="r"></path><path d="M 549.59 321 m -1, 0 a 1,1 0 1,0 2,0 a 1,1 0 1,0 -2,0 M 549.59 321 m -0.5, 0 a 0.5,0.5 0 1,0 1,0 a 0.5,0.5 0 1,0 -1,0  M549.59 321 L549.59 321 561.59 321 M 549.59 327 m -1, 0 a 1,1 0 1,0 2,0 a 1,1 0 1,0 -2,0 M 549.59 327 m -0.5, 0 a 0.5,0.5 0 1,0 1,0 a 0.5,0.5 0 1,0 -1,0  M549.59 327 L549.59 327 556.59 321 549.59 315 M 549.59 315 m -1, 0 a 1,1 0 1,0 2,0 a 1,1 0 1,0 -2,0 M 549.59 315 m -0.5, 0 a 0.5,0.5 0 1,0 1,0 a 0.5,0.5 0 1,0 -1,0  M561.59 321 Q 594.19 321, 626.8 412.5 T 692 504 M 704 504 m -1, 0 a 1,1 0 1,0 2,0 a 1,1 0 1,0 -2,0 M 704 504 m -0.5, 0 a 0.5,0.5 0 1,0 1,0 a 0.5,0.5 0 1,0 -1,0  M704 504 L704 504 692 504 M698 510 L698 510 698 498" id="h3946653464" class="r"></path><path d="M 396 346 m -1, 0 a 1,1 0 1,0 2,0 a 1,1 0 1,0 -2,0 M 396 346 m -0.5, 0 a 0.5,0.5 0 1,0 1,0 a 0.5,0.5 0 1,0 -1,0  M396 346 L396 346 384 346 M 396 352 m -1, 0 a 1,1 0 1,0 2,0 a 1,1 0 1,0 -2,0 M 396 352 m -0.5, 0 a 0.5,0.5 0 1,0 1,0 a 0.5,0.5 0 1,0 -1,0  M396 352 L396 352 389 346 396 340 M 396 340 m -1, 0 a 1,1 0 1,0 2,0 a 1,1 0 1,0 -2,0 M 396 340 m -0.5, 0 a 0.5,0.5 0 1,0 1,0 a 0.5,0.5 0 1,0 -1,0  M384 346 Q 345.96 346, 307.92 216.5 T 231.84 87 M 219.84 87 m -1, 0 a 1,1 0 1,0 2,0 a 1,1 0 1,0 -2,0 M 219.84 87 m -0.5, 0 a 0.5,0.5 0 1,0 1,0 a 0.5,0.5 0 1,0 -1,0  M219.84 87 L219.84 87 231.84 87 M225.84 93 L225.84 93 225.84 81" id="h189564850" class="r"></path></g><g class="hrs"></g><g class="ts"><svg width="189.84" height="200" x="30" y="30" id="h4200617828" class="t"><rect height="40" width="189.84" class="th"></rect><text x="13" y="25" class="tht">film</text><rect height="160" width="189.84" class="t-bg" y="40"></rect><text x="13" y="61" class="tf pk">id<tspan x="176.84" class="ty">INT</tspan></text><path d="M7,14A2,2 0 0,1 5,12A2,2 0 0,1 7,10A2,2 0 0,1 9,12A2,2 0 0,1 7,14M12.65,10C11.83,7.67 9.61,6 7, 6A6, 6 0 0, 0 1, 12A6, 6 0 0, 0 7, 18C9.61, 18 11.83, 16.33 12.65, 14H17V18H21V14H23V10H12.65Z" class="i pk" transform="translate(137.509921875, 48) scale(0.65)"></path><text x="13" y="86" class="tf fk">mpa_rating_id<tspan x="176.84" class="ty">INT</tspan></text><text x="13" y="111" class="tf">name<tspan x="176.84" class="ty">TEXT</tspan></text><text x="13" y="136" class="tf">description<tspan x="176.84" class="ty">VARCHAR(200)</tspan></text><text x="13" y="161" class="tf">release_date<tspan x="176.84" class="ty">DATE</tspan></text><text x="13" y="186" class="tf">duration<tspan x="176.84" class="ty">INT</tspan></text></svg><svg width="120.03" height="175" x="704" y="447" id="h2728321744" class="t"><rect height="40" width="120.03" class="th"></rect><text x="13" y="25" class="tht">user</text><rect height="135" width="120.03" class="t-bg" y="40"></rect><text x="13" y="61" class="tf pk">id<tspan x="107.03" class="ty">INT</tspan></text><path d="M7,14A2,2 0 0,1 5,12A2,2 0 0,1 7,10A2,2 0 0,1 9,12A2,2 0 0,1 7,14M12.65,10C11.83,7.67 9.61,6 7, 6A6, 6 0 0, 0 1, 12A6, 6 0 0, 0 7, 18C9.61, 18 11.83, 16.33 12.65, 14H17V18H21V14H23V10H12.65Z" class="i pk" transform="translate(67.699921875, 48) scale(0.65)"></path><text x="13" y="86" class="tf">email<tspan x="107.03" class="ty">TEXT</tspan></text><text x="13" y="111" class="tf">login<tspan x="107.03" class="ty">TEXT</tspan></text><text x="13" y="136" class="tf">name<tspan x="107.03" class="ty">TEXT?</tspan></text><text x="13" y="161" class="tf">birthday<tspan x="107.03" class="ty">DATE</tspan></text></svg><svg width="107.36" height="100" x="572" y="45" id="h2849279907" class="t"><rect height="40" width="107.36" class="th"></rect><text x="13" y="25" class="tht">dict_genre</text><rect height="60" width="107.36" class="t-bg" y="40"></rect><text x="13" y="61" class="tf pk">id<tspan x="94.36" class="ty">INT</tspan></text><path d="M7,14A2,2 0 0,1 5,12A2,2 0 0,1 7,10A2,2 0 0,1 9,12A2,2 0 0,1 7,14M12.65,10C11.83,7.67 9.61,6 7, 6A6, 6 0 0, 0 1, 12A6, 6 0 0, 0 7, 18C9.61, 18 11.83, 16.33 12.65, 14H17V18H21V14H23V10H12.65Z" class="i pk" transform="translate(55.029921875, 48) scale(0.65)"></path><text x="13" y="86" class="tf">genre<tspan x="94.36" class="ty">TEXT</tspan></text></svg><svg width="125.61" height="100" x="67" y="360" id="h4285989473" class="t"><rect height="40" width="125.61" class="th"></rect><text x="13" y="25" class="tht">dict_mpa_rating</text><rect height="60" width="125.61" class="t-bg" y="40"></rect><text x="13" y="61" class="tf pk">id<tspan x="112.61" class="ty">INT</tspan></text><path d="M7,14A2,2 0 0,1 5,12A2,2 0 0,1 7,10A2,2 0 0,1 9,12A2,2 0 0,1 7,14M12.65,10C11.83,7.67 9.61,6 7, 6A6, 6 0 0, 0 1, 12A6, 6 0 0, 0 7, 18C9.61, 18 11.83, 16.33 12.65, 14H17V18H21V14H23V10H12.65Z" class="i pk" transform="translate(73.279921875, 48) scale(0.65)"></path><text x="13" y="86" class="tf">rating<tspan x="112.61" class="ty">TEXT</tspan></text></svg><svg width="161.41" height="100" x="800" y="83" id="h1860449809" class="t"><rect height="40" width="161.41" class="th"></rect><text x="13" y="25" class="tht">dict_friendship_status</text><rect height="60" width="161.41" class="t-bg" y="40"></rect><text x="13" y="61" class="tf pk">id<tspan x="148.41" class="ty">INT</tspan></text><path d="M7,14A2,2 0 0,1 5,12A2,2 0 0,1 7,10A2,2 0 0,1 9,12A2,2 0 0,1 7,14M12.65,10C11.83,7.67 9.61,6 7, 6A6, 6 0 0, 0 1, 12A6, 6 0 0, 0 7, 18C9.61, 18 11.83, 16.33 12.65, 14H17V18H21V14H23V10H12.65Z" class="i pk" transform="translate(109.079921875, 48) scale(0.65)"></path><text x="13" y="86" class="tf">status<tspan x="148.41" class="ty">TEXT</tspan></text></svg><svg width="132.04" height="100" x="332" y="40" id="h856918415" class="t"><rect height="40" width="132.04" class="th"></rect><text x="13" y="25" class="tht">mtm_film_genre</text><rect height="60" width="132.04" class="t-bg" y="40"></rect><text x="13" y="61" class="tf pk">film_id<tspan x="119.03999999999999" class="ty">INT</tspan></text><path d="M7,14A2,2 0 0,1 5,12A2,2 0 0,1 7,10A2,2 0 0,1 9,12A2,2 0 0,1 7,14M12.65,10C11.83,7.67 9.61,6 7, 6A6, 6 0 0, 0 1, 12A6, 6 0 0, 0 7, 18C9.61, 18 11.83, 16.33 12.65, 14H17V18H21V14H23V10H12.65Z" class="i pk" transform="translate(79.70992187499999, 48) scale(0.65)"></path><text x="13" y="86" class="tf pk">genre_id<tspan x="119.03999999999999" class="ty">INT</tspan></text><path d="M7,14A2,2 0 0,1 5,12A2,2 0 0,1 7,10A2,2 0 0,1 9,12A2,2 0 0,1 7,14M12.65,10C11.83,7.67 9.61,6 7, 6A6, 6 0 0, 0 1, 12A6, 6 0 0, 0 7, 18C9.61, 18 11.83, 16.33 12.65, 14H17V18H21V14H23V10H12.65Z" class="i pk" transform="translate(79.70992187499999, 73) scale(0.65)"></path></svg><svg width="191.74" height="125" x="760" y="251" id="h609408592" class="t"><rect height="40" width="191.74" class="th"></rect><text x="13" y="25" class="tht">mtm_user_user_friendship</text><rect height="85" width="191.74" class="t-bg" y="40"></rect><text x="13" y="61" class="tf pk">user_1_id<tspan x="178.74" class="ty">INT</tspan></text><path d="M7,14A2,2 0 0,1 5,12A2,2 0 0,1 7,10A2,2 0 0,1 9,12A2,2 0 0,1 7,14M12.65,10C11.83,7.67 9.61,6 7, 6A6, 6 0 0, 0 1, 12A6, 6 0 0, 0 7, 18C9.61, 18 11.83, 16.33 12.65, 14H17V18H21V14H23V10H12.65Z" class="i pk" transform="translate(139.409921875, 48) scale(0.65)"></path><text x="13" y="86" class="tf pk">user_2_id<tspan x="178.74" class="ty">INT</tspan></text><path d="M7,14A2,2 0 0,1 5,12A2,2 0 0,1 7,10A2,2 0 0,1 9,12A2,2 0 0,1 7,14M12.65,10C11.83,7.67 9.61,6 7, 6A6, 6 0 0, 0 1, 12A6, 6 0 0, 0 7, 18C9.61, 18 11.83, 16.33 12.65, 14H17V18H21V14H23V10H12.65Z" class="i pk" transform="translate(139.409921875, 73) scale(0.65)"></path><text x="13" y="111" class="tf fk">friendship_status_id<tspan x="178.74" class="ty">INT</tspan></text></svg><svg width="153.59" height="100" x="396" y="264" id="h2451749122" class="t"><rect height="40" width="153.59" class="th"></rect><text x="13" y="25" class="tht">mtm_user_film_likes</text><rect height="60" width="153.59" class="t-bg" y="40"></rect><text x="13" y="61" class="tf pk">user_id<tspan x="140.59" class="ty">INT</tspan></text><path d="M7,14A2,2 0 0,1 5,12A2,2 0 0,1 7,10A2,2 0 0,1 9,12A2,2 0 0,1 7,14M12.65,10C11.83,7.67 9.61,6 7, 6A6, 6 0 0, 0 1, 12A6, 6 0 0, 0 7, 18C9.61, 18 11.83, 16.33 12.65, 14H17V18H21V14H23V10H12.65Z" class="i pk" transform="translate(101.259921875, 48) scale(0.65)"></path><text x="13" y="86" class="tf pk">film_id<tspan x="140.59" class="ty">INT</tspan></text><path d="M7,14A2,2 0 0,1 5,12A2,2 0 0,1 7,10A2,2 0 0,1 9,12A2,2 0 0,1 7,14M12.65,10C11.83,7.67 9.61,6 7, 6A6, 6 0 0, 0 1, 12A6, 6 0 0, 0 7, 18C9.61, 18 11.83, 16.33 12.65, 14H17V18H21V14H23V10H12.65Z" class="i pk" transform="translate(101.259921875, 73) scale(0.65)"></path></svg></g></g><text class="qdbd-link" x="10" y="20">www.quickdatabasediagrams.com</text></svg>